<mxfile host="Electron" agent="Mozilla/5.0 (Macintosh; Intel Mac OS X 10_15_7) AppleWebKit/537.36 (KHTML, like Gecko) draw.io/24.7.8 Chrome/128.0.6613.36 Electron/32.0.1 Safari/537.36" version="24.7.8">
  <diagram name="第 1 页" id="EAW7-buWElqhq8ss8K1u">
    <mxGraphModel dx="857" dy="626" grid="1" gridSize="10" guides="1" tooltips="1" connect="1" arrows="1" fold="1" page="1" pageScale="1" pageWidth="827" pageHeight="1169" math="0" shadow="0">
      <root>
        <mxCell id="0" />
        <mxCell id="1" parent="0" />
        <mxCell id="Z53wJ4BojoYVle3DDfQA-9" value="&quot;WangCai&quot;" style="rounded=0;whiteSpace=wrap;html=1;strokeWidth=2;fillColor=#f8cecc;strokeColor=#b85450;comic=1;fontFamily=monaco;" vertex="1" parent="1">
          <mxGeometry x="110" y="549" width="160" height="40" as="geometry" />
        </mxCell>
        <mxCell id="Z53wJ4BojoYVle3DDfQA-11" value="*Puppy" style="rounded=0;whiteSpace=wrap;html=1;strokeWidth=2;fillColor=#ffe6cc;strokeColor=#d79b00;comic=1;fontFamily=monaco;" vertex="1" parent="1">
          <mxGeometry x="110" y="664" width="160" height="40" as="geometry" />
        </mxCell>
        <mxCell id="Z53wJ4BojoYVle3DDfQA-12" value="&lt;div style=&quot;&quot;&gt;iface of a:&lt;/div&gt;&lt;div style=&quot;&quot;&gt;&lt;span style=&quot;background-color: initial;&quot;&gt;&lt;br&gt;&lt;/span&gt;&lt;/div&gt;&lt;div style=&quot;&quot;&gt;&lt;span style=&quot;background-color: initial;&quot;&gt;elem unsafe.Pointer&lt;/span&gt;&lt;/div&gt;&lt;div style=&quot;&quot;&gt;&lt;span style=&quot;background-color: initial;&quot;&gt;go.itab.*Puppy,Animal&lt;/span&gt;&lt;/div&gt;&lt;div style=&quot;&quot;&gt;&lt;br&gt;&lt;/div&gt;" style="rounded=0;whiteSpace=wrap;html=1;strokeWidth=2;fillColor=#d5e8d4;strokeColor=#82b366;comic=1;fontFamily=monaco;align=left;" vertex="1" parent="1">
          <mxGeometry x="110" y="592" width="160" height="70" as="geometry" />
        </mxCell>
        <mxCell id="Z53wJ4BojoYVle3DDfQA-13" value="&lt;font face=&quot;monaco&quot;&gt;stack&lt;/font&gt;" style="text;html=1;align=center;verticalAlign=middle;resizable=0;points=[];autosize=1;strokeColor=none;fillColor=none;" vertex="1" parent="1">
          <mxGeometry x="170" y="750" width="60" height="30" as="geometry" />
        </mxCell>
        <mxCell id="Z53wJ4BojoYVle3DDfQA-14" value="&lt;font face=&quot;monaco&quot;&gt;heap&lt;/font&gt;" style="text;html=1;align=center;verticalAlign=middle;resizable=0;points=[];autosize=1;strokeColor=none;fillColor=none;" vertex="1" parent="1">
          <mxGeometry x="435" y="750" width="50" height="30" as="geometry" />
        </mxCell>
        <mxCell id="Z53wJ4BojoYVle3DDfQA-22" style="edgeStyle=orthogonalEdgeStyle;rounded=0;orthogonalLoop=1;jettySize=auto;html=1;dashed=1;strokeColor=#666666;" edge="1" parent="1" source="Z53wJ4BojoYVle3DDfQA-15">
          <mxGeometry relative="1" as="geometry">
            <mxPoint x="280" y="570" as="targetPoint" />
          </mxGeometry>
        </mxCell>
        <mxCell id="Z53wJ4BojoYVle3DDfQA-24" value="&lt;font face=&quot;monaco&quot;&gt;copy&lt;/font&gt;" style="edgeLabel;html=1;align=center;verticalAlign=middle;resizable=0;points=[];" vertex="1" connectable="0" parent="Z53wJ4BojoYVle3DDfQA-22">
          <mxGeometry x="-0.0397" y="-3" relative="1" as="geometry">
            <mxPoint as="offset" />
          </mxGeometry>
        </mxCell>
        <mxCell id="Z53wJ4BojoYVle3DDfQA-15" value="&quot;WangCai&quot;" style="rounded=0;whiteSpace=wrap;html=1;strokeWidth=2;fillColor=#f8cecc;strokeColor=#b85450;comic=1;fontFamily=monaco;" vertex="1" parent="1">
          <mxGeometry x="395" y="550" width="130" height="40" as="geometry" />
        </mxCell>
        <mxCell id="Z53wJ4BojoYVle3DDfQA-19" value="&lt;font face=&quot;Monaco&quot;&gt;对于 Animal 类型 a, 经过 var a Animal = &amp;amp;Puppy{} 复制后：&lt;/font&gt;" style="text;html=1;align=left;verticalAlign=middle;resizable=0;points=[];autosize=1;strokeColor=none;fillColor=none;fontSize=12;fontFamily=Helvetica;fontColor=default;" vertex="1" parent="1">
          <mxGeometry x="75" y="490" width="410" height="30" as="geometry" />
        </mxCell>
        <mxCell id="Z53wJ4BojoYVle3DDfQA-21" style="edgeStyle=orthogonalEdgeStyle;rounded=0;orthogonalLoop=1;jettySize=auto;html=1;entryX=-0.012;entryY=0.384;entryDx=0;entryDy=0;entryPerimeter=0;" edge="1" parent="1" source="Z53wJ4BojoYVle3DDfQA-11" target="Z53wJ4BojoYVle3DDfQA-9">
          <mxGeometry relative="1" as="geometry">
            <Array as="points">
              <mxPoint x="80" y="678" />
              <mxPoint x="80" y="565" />
            </Array>
          </mxGeometry>
        </mxCell>
        <mxCell id="Z53wJ4BojoYVle3DDfQA-25" style="edgeStyle=orthogonalEdgeStyle;rounded=0;orthogonalLoop=1;jettySize=auto;html=1;exitX=0.875;exitY=0.5;exitDx=0;exitDy=0;exitPerimeter=0;dashed=1;" edge="1" parent="1" source="Z53wJ4BojoYVle3DDfQA-12">
          <mxGeometry relative="1" as="geometry">
            <mxPoint x="270" y="690" as="targetPoint" />
            <Array as="points">
              <mxPoint x="290" y="627" />
              <mxPoint x="290" y="690" />
            </Array>
          </mxGeometry>
        </mxCell>
      </root>
    </mxGraphModel>
  </diagram>
</mxfile>
